<?xml version="1.0" standalone="no"?>
<!DOCTYPE svg PUBLIC "-//W3C//DTD SVG 20010904//EN"
 "http://www.w3.org/TR/2001/REC-SVG-20010904/DTD/svg10.dtd">
<svg version="1.0" xmlns="http://www.w3.org/2000/svg"
 width="2000.000000pt" height="2000.000000pt" viewBox="0 0 2000.000000 2000.000000"
 preserveAspectRatio="xMidYMid meet">

<g transform="translate(0.000000,2000.000000) scale(0.100000,-0.100000)"
fill="#000000" stroke="none">
<path d="M3961 17488 c-188 -21 -438 -103 -606 -199 -141 -81 -240 -156 -355
-269 -215 -213 -353 -443 -435 -729 -67 -233 -65 -176 -65 -2077 l0 -1714 835
0 835 0 0 1665 0 1665 5830 0 5830 0 0 -5830 0 -5830 -5830 0 -5830 0 0 1665
0 1665 -835 0 -835 0 3 -1767 c3 -1619 5 -1775 20 -1853 72 -359 222 -646 467
-890 245 -245 540 -399 893 -467 87 -17 395 -18 6117 -18 5722 0 6030 1 6117
18 353 68 649 222 893 467 244 244 394 530 467 890 16 80 17 450 20 6065 4
6534 7 6081 -53 6311 -171 660 -748 1161 -1422 1233 -132 14 -11934 13 -12061
-1z"/>
<path d="M8990 13575 l-585 -585 1073 -1073 c589 -589 1072 -1075 1072 -1080
0 -4 -1811 -7 -4025 -7 l-4025 0 0 -830 0 -830 4025 0 c2214 0 4025 -3 4025
-7 0 -5 -483 -491 -1072 -1080 l-1073 -1073 585 -585 c322 -322 588 -584 592
-583 5 2 944 939 2088 2083 l2080 2080 -2077 2077 c-1143 1143 -2082 2078
-2088 2078 -6 0 -273 -263 -595 -585z"/>
</g>
</svg>
