<svg version="1.1" xmlns="http://www.w3.org/2000/svg" viewBox="0 0 2290.811602416751 397.4054505174814" width="6872.4348072502535" height="1192.2163515524444" filter="invert(93%) hue-rotate(180deg)">
  <!-- svg-source:excalidraw -->
  
  <defs>
    <style class="style-fonts">
      @font-face {
        font-family: "Virgil";
        src: url("https://excalidraw.com/Virgil.woff2");
      }
      @font-face {
        font-family: "Cascadia";
        src: url("https://excalidraw.com/Cascadia.woff2");
      }
      @font-face {
        font-family: "Assistant";
        src: url("https://excalidraw.com/Assistant-Regular.woff2");
      }
    </style>
    
  </defs>
  <rect x="0" y="0" width="2290.811602416751" height="397.4054505174814" fill="#ffffff"></rect><g stroke-linecap="round" transform="translate(50.62358223803608 88.0088929631387) rotate(0 156.70634343959165 82.33723129876847)"><path d="M32 0 C115.03 2.97, 196.49 2.71, 281.41 0 M32 0 C113.31 -0.1, 194.8 -0.5, 281.41 0 M281.41 0 C301.24 -0.91, 311.96 10.37, 313.41 32 M281.41 0 C303.33 0, 311.55 11.32, 313.41 32 M313.41 32 C314.14 55.62, 312.59 80.09, 313.41 132.67 M313.41 32 C314.37 60.72, 314.57 88.07, 313.41 132.67 M313.41 132.67 C312.35 154.16, 304.01 165.82, 281.41 164.67 M313.41 132.67 C313.81 154.06, 304.2 162.46, 281.41 164.67 M281.41 164.67 C182.7 162.92, 88.01 164.42, 32 164.67 M281.41 164.67 C230.95 166.14, 179.13 166.03, 32 164.67 M32 164.67 C10.23 165.36, 1.29 152.25, 0 132.67 M32 164.67 C8.78 164.78, 1.96 154.39, 0 132.67 M0 132.67 C-0.43 96.37, -0.17 60.55, 0 32 M0 132.67 C-1.49 98.1, 0.04 63.82, 0 32 M0 32 C0.47 11.55, 8.87 -0.31, 32 0 M0 32 C1.43 9.16, 9.54 -0.88, 32 0" stroke="#1e1e1e" stroke-width="2" fill="none"></path></g><g transform="translate(146.2759629701082 152.84612426190716) rotate(0 61.05396270751953 17.5)"><text x="61.05396270751953" y="0" font-family="Virgil, Segoe UI Emoji" font-size="28px" fill="#1e1e1e" text-anchor="middle" style="white-space: pre;" direction="ltr" dominant-baseline="text-before-edge">Iniciacion</text></g><g stroke-linecap="round" transform="translate(433.9786489773575 88.00889226729407) rotate(0 156.70634343959165 82.33723129876847)"><path d="M32 0 C83.15 0.16, 132.49 0, 281.41 0 M32 0 C111.73 0.21, 192.57 0.45, 281.41 0 M281.41 0 C301.1 -1.06, 311.88 12.02, 313.41 32 M281.41 0 C303.58 0.83, 314.15 8.46, 313.41 32 M313.41 32 C312.21 58.11, 314.64 84.51, 313.41 132.67 M313.41 32 C313.54 55.92, 314.39 80.09, 313.41 132.67 M313.41 132.67 C311.63 153.56, 300.81 166, 281.41 164.67 M313.41 132.67 C312.3 152.93, 300.62 163.58, 281.41 164.67 M281.41 164.67 C197.28 162.47, 112.79 164.26, 32 164.67 M281.41 164.67 C181.69 165.12, 83.02 165.12, 32 164.67 M32 164.67 C11.61 165.63, -1.77 152.11, 0 132.67 M32 164.67 C10.7 166.25, -0.88 155.14, 0 132.67 M0 132.67 C-0.22 92.06, -0.11 54.43, 0 32 M0 132.67 C-0.05 99.73, -0.38 68.24, 0 32 M0 32 C-1.64 11.37, 11.34 1.85, 32 0 M0 32 C-1.42 8.39, 12.61 0.07, 32 0" stroke="#1e1e1e" stroke-width="2" fill="none"></path></g><g transform="translate(545.5910135351132 152.84612356606254) rotate(0 45.09397888183594 17.5)"><text x="45.09397888183594" y="0" font-family="Virgil, Segoe UI Emoji" font-size="28px" fill="#1e1e1e" text-anchor="middle" style="white-space: pre;" direction="ltr" dominant-baseline="text-before-edge">Dise침o</text></g><g stroke-linecap="round" transform="translate(817.3337152663137 88.00889182866395) rotate(0 156.70634343959165 82.33723129876847)"><path d="M32 0 C108.32 -0.14, 185.92 1.41, 281.41 0 M32 0 C120.85 0.02, 210.23 0.7, 281.41 0 M281.41 0 C303.44 1.6, 311.78 11.65, 313.41 32 M281.41 0 C302.84 0.01, 313.76 10.99, 313.41 32 M313.41 32 C313.38 64.99, 313.58 93.48, 313.41 132.67 M313.41 32 C311.53 69.85, 313.25 107.89, 313.41 132.67 M313.41 132.67 C313.35 153.11, 304.66 165.53, 281.41 164.67 M313.41 132.67 C313.96 153.45, 304.38 165.99, 281.41 164.67 M281.41 164.67 C226.69 165.52, 172.93 165, 32 164.67 M281.41 164.67 C208.08 164.46, 135.17 164.19, 32 164.67 M32 164.67 C12.33 166.12, 0.6 153.9, 0 132.67 M32 164.67 C9.52 165.55, -1.87 153.13, 0 132.67 M0 132.67 C0.65 108.13, -1.32 85.2, 0 32 M0 132.67 C-0.99 110.58, -0.31 90.84, 0 32 M0 32 C-1.42 11.02, 10.97 0.17, 32 0 M0 32 C0.25 12.64, 12.7 -0.05, 32 0" stroke="#1e1e1e" stroke-width="2" fill="none"></path></g><g transform="translate(903.6060834861787 152.8461231274324) rotate(0 70.43397521972656 17.5)"><text x="70.43397521972656" y="0" font-family="Virgil, Segoe UI Emoji" font-size="28px" fill="#1e1e1e" text-anchor="middle" style="white-space: pre;" direction="ltr" dominant-baseline="text-before-edge">Desarrollo</text></g><g stroke-linecap="round" transform="translate(1200.6887815317991 88.0088911210841) rotate(0 156.7063434395917 82.33723129876847)"><path d="M32 0 C94.8 -0.77, 158.08 1.65, 281.41 0 M32 0 C119.19 1.74, 205.74 0.82, 281.41 0 M281.41 0 C300.87 -0.34, 313.46 10.23, 313.41 32 M281.41 0 C303.43 -2.2, 311.17 8.72, 313.41 32 M313.41 32 C312.06 71.91, 312.1 112.33, 313.41 132.67 M313.41 32 C312.37 60.23, 313.04 87.41, 313.41 132.67 M313.41 132.67 C313.55 153.1, 303.72 162.96, 281.41 164.67 M313.41 132.67 C313.44 153.82, 300.66 164.56, 281.41 164.67 M281.41 164.67 C213.59 165.72, 141.25 165.83, 32 164.67 M281.41 164.67 C187.5 165.22, 93.73 166.11, 32 164.67 M32 164.67 C11.56 162.95, -1.32 154.79, 0 132.67 M32 164.67 C11.3 163.54, 0.83 152.29, 0 132.67 M0 132.67 C1.56 108.22, 1.43 83.98, 0 32 M0 132.67 C-0.34 110.82, 0.9 88.04, 0 32 M0 32 C0.14 8.69, 10.57 0.86, 32 0 M0 32 C-0.59 10.45, 9.64 0.17, 32 0" stroke="#1e1e1e" stroke-width="2" fill="none"></path></g><g transform="translate(1302.4591432209024 152.84612241985258) rotate(0 54.93598175048828 17.5)"><text x="54.93598175048828" y="0" font-family="Virgil, Segoe UI Emoji" font-size="28px" fill="#1e1e1e" text-anchor="middle" style="white-space: pre;" direction="ltr" dominant-baseline="text-before-edge">Pruebas</text></g><g stroke-linecap="round" transform="translate(1584.0438489850487 88.00889212108412) rotate(0 156.7063434395916 82.33723129876847)"><path d="M32 0 C85.6 2.7, 139.42 2.28, 281.41 0 M32 0 C107.53 0.68, 181.74 0.33, 281.41 0 M281.41 0 C301.53 -0.49, 311.89 11.86, 313.41 32 M281.41 0 C303.92 0.37, 314.67 8.85, 313.41 32 M313.41 32 C315.28 71.74, 312.56 113.21, 313.41 132.67 M313.41 32 C314.22 70.8, 314.67 107.78, 313.41 132.67 M313.41 132.67 C314.53 154.19, 302.4 164.08, 281.41 164.67 M313.41 132.67 C313.39 154.37, 302.02 166.57, 281.41 164.67 M281.41 164.67 C200.64 166.44, 117.87 164.73, 32 164.67 M281.41 164.67 C230.22 166.19, 180.51 166.7, 32 164.67 M32 164.67 C12.66 164.72, 1.14 155.14, 0 132.67 M32 164.67 C9.67 165.42, 0.17 153.07, 0 132.67 M0 132.67 C-0.54 98.68, 0.93 65.84, 0 32 M0 132.67 C1.34 101.98, 1.3 70.18, 0 32 M0 32 C0.81 9.17, 11.47 -1.13, 32 0 M0 32 C0.28 11.17, 11.29 0.42, 32 0" stroke="#1e1e1e" stroke-width="2" fill="none"></path></g><g transform="translate(1616.9202363699528 152.84612341985257) rotate(0 123.8299560546875 17.5)"><text x="123.8299560546875" y="0" font-family="Virgil, Segoe UI Emoji" font-size="28px" fill="#1e1e1e" text-anchor="middle" style="white-space: pre;" direction="ltr" dominant-baseline="text-before-edge">Puesto en marcha</text></g><g stroke-linecap="round" transform="translate(1967.398915537568 88.00889365898331) rotate(0 156.7063434395917 82.33723129876847)"><path d="M32 0 C85.34 -0.9, 139.51 0.27, 281.41 0 M32 0 C102.2 -1.49, 172.31 -2.55, 281.41 0 M281.41 0 C301.54 -0.21, 314.39 10.14, 313.41 32 M281.41 0 C303.16 -1.75, 313.5 11.57, 313.41 32 M313.41 32 C314.07 66.58, 312.19 96.42, 313.41 132.67 M313.41 32 C312.99 58.56, 314.67 86.86, 313.41 132.67 M313.41 132.67 C312.15 155.99, 303.93 163.74, 281.41 164.67 M313.41 132.67 C314.38 153.57, 303.89 164.95, 281.41 164.67 M281.41 164.67 C192.69 163.39, 104.77 163.93, 32 164.67 M281.41 164.67 C200.3 162.5, 119.11 162.72, 32 164.67 M32 164.67 C12.46 163.85, -1.95 153.88, 0 132.67 M32 164.67 C11.61 165.23, -0.13 155.05, 0 132.67 M0 132.67 C1.07 111.87, -0.26 91.27, 0 32 M0 132.67 C0.27 110.33, -0.95 89.01, 0 32 M0 32 C-1.79 9.82, 12 -1.31, 32 0 M0 32 C1.19 8.87, 12.83 -1.97, 32 0" stroke="#1e1e1e" stroke-width="2" fill="none"></path></g><g transform="translate(2030.5433082935658 152.84612495775178) rotate(0 93.56195068359375 17.5)"><text x="93.56195068359375" y="0" font-family="Virgil, Segoe UI Emoji" font-size="28px" fill="#1e1e1e" text-anchor="middle" style="white-space: pre;" direction="ltr" dominant-baseline="text-before-edge">Mantenimiento</text></g><g stroke-linecap="round"><g transform="translate(1906.3283162415746 171.36015092661194) rotate(0 24.789704046941097 0)"><path d="M-0.34 0.04 C8.06 -0.06, 41.56 -0.23, 49.95 -0.32 M0.48 -0.42 C8.89 -0.47, 41.48 0.18, 49.71 0.22" stroke="#1e1e1e" stroke-width="2" fill="none"></path></g><g transform="translate(1906.3283162415746 171.36015092661194) rotate(0 24.789704046941097 0)"><path d="M49.86 0.38 L35.31 5.59 L36.34 -6.53 L49.88 0.08" stroke="none" stroke-width="0" fill="#1e1e1e" fill-rule="evenodd"></path><path d="M49.71 0.22 C46.88 1.99, 43.5 3.33, 36.03 6.38 M49.71 0.22 C46.61 1.81, 44.33 2.75, 36.03 6.38 M36.03 6.38 C35.65 2.31, 36.43 -2.08, 36.2 -6.3 M36.03 6.38 C36.18 2.16, 36.29 -2.47, 36.2 -6.3 M36.2 -6.3 C41.85 -4.21, 46.1 -2.17, 49.71 0.22 M36.2 -6.3 C40.74 -3.73, 45.71 -1.52, 49.71 0.22 M49.71 0.22 C49.71 0.22, 49.71 0.22, 49.71 0.22 M49.71 0.22 C49.71 0.22, 49.71 0.22, 49.71 0.22" stroke="#1e1e1e" stroke-width="2" fill="none"></path></g></g><mask></mask><g stroke-linecap="round"><g transform="translate(1522.0879035139883 164.27737834177162) rotate(0 26.560397193151175 0.8853465731050392)"><path d="M-0.02 0.9 C8.82 1.03, 43.89 0.69, 52.69 0.9 M-1.49 0.33 C7.18 0.58, 42.63 2.03, 51.52 1.98" stroke="#1e1e1e" stroke-width="2" fill="none"></path></g><g transform="translate(1522.0879035139883 164.27737834177162) rotate(0 26.560397193151175 0.8853465731050392)"><path d="M50.73 3.27 L38.05 9.12 L36.78 -6.54 L51.56 3.88" stroke="none" stroke-width="0" fill="#1e1e1e" fill-rule="evenodd"></path><path d="M51.52 1.98 C48.95 3.07, 43.02 4.79, 37.79 8.03 M51.52 1.98 C46.38 4.57, 41.8 5.26, 37.79 8.03 M37.79 8.03 C38.95 3.89, 36.69 -1.81, 38.06 -4.65 M37.79 8.03 C37.3 4.32, 37.9 -0.17, 38.06 -4.65 M38.06 -4.65 C43.62 -3, 48.12 0.45, 51.52 1.98 M38.06 -4.65 C42.4 -1.57, 47.54 0.65, 51.52 1.98 M51.52 1.98 C51.52 1.98, 51.52 1.98, 51.52 1.98 M51.52 1.98 C51.52 1.98, 51.52 1.98, 51.52 1.98" stroke="#1e1e1e" stroke-width="2" fill="none"></path></g></g><mask></mask><g stroke-linecap="round"><g transform="translate(1148.4716496636624 166.0480714879817) rotate(0 21.24831775452094 -0.8853465731050392)"><path d="M0.41 0.14 C7.5 -0.14, 35.04 -1.64, 42.11 -1.99 M-0.05 -0.26 C7.26 -0.44, 36.04 -1.2, 43.14 -1.4" stroke="#1e1e1e" stroke-width="2" fill="none"></path></g><g transform="translate(1148.4716496636624 166.0480714879817) rotate(0 21.24831775452094 -0.8853465731050392)"><path d="M44.01 -0.51 L29.32 4.97 L29.99 -7.2 L43.69 -2.01" stroke="none" stroke-width="0" fill="#1e1e1e" fill-rule="evenodd"></path><path d="M43.14 -1.4 C40.41 -0.42, 37 1.96, 29.72 5.31 M43.14 -1.4 C39.22 0.66, 35.64 1.97, 29.72 5.31 M29.72 5.31 C29.89 2.63, 30.24 0.6, 29.38 -7.37 M29.72 5.31 C29.87 1.63, 29.65 -2.15, 29.38 -7.37 M29.38 -7.37 C33.09 -6.04, 38.08 -3.78, 43.14 -1.4 M29.38 -7.37 C33.08 -5.5, 37.16 -3.55, 43.14 -1.4 M43.14 -1.4 C43.14 -1.4, 43.14 -1.4, 43.14 -1.4 M43.14 -1.4 C43.14 -1.4, 43.14 -1.4, 43.14 -1.4" stroke="#1e1e1e" stroke-width="2" fill="none"></path></g></g><mask></mask><g stroke-linecap="round"><g transform="translate(757.1484643512358 162.50668519556154) rotate(0 24.789704046941097 2.6560397193151175)"><path d="M0.3 -0.33 C8.51 0.59, 41.38 4.75, 49.58 5.63 M-0.21 0.68 C7.9 1.44, 40.93 4.05, 49.15 4.83" stroke="#1e1e1e" stroke-width="2" fill="none"></path></g><g transform="translate(757.1484643512358 162.50668519556154) rotate(0 24.789704046941097 2.6560397193151175)"><path d="M49.14 5.41 L35.67 10.01 L37.02 -2.52 L49.05 4.91" stroke="none" stroke-width="0" fill="#1e1e1e" fill-rule="evenodd"></path><path d="M49.15 4.83 C43.61 6.73, 39.43 8.5, 35.06 9.98 M49.15 4.83 C45.78 5.7, 42.9 7.16, 35.06 9.98 M35.06 9.98 C34.9 5.43, 35.34 2.3, 36.15 -2.65 M35.06 9.98 C35.37 7.06, 35.53 3.58, 36.15 -2.65 M36.15 -2.65 C38.33 -0.65, 41.32 0.79, 49.15 4.83 M36.15 -2.65 C40.64 0.19, 45.36 2.18, 49.15 4.83 M49.15 4.83 C49.15 4.83, 49.15 4.83, 49.15 4.83 M49.15 4.83 C49.15 4.83, 49.15 4.83, 49.15 4.83" stroke="#1e1e1e" stroke-width="2" fill="none"></path></g></g><mask></mask><g stroke-linecap="round"><g transform="translate(378.22013106227956 178.44292351145225) rotate(0 19.477624608310805 -2.6560397193151175)"><path d="M0.25 -0.48 C6.68 -1.26, 32.62 -4.28, 39.07 -5.05 M-0.29 0.46 C6.04 -0.45, 32.21 -4.79, 38.7 -5.89" stroke="#1e1e1e" stroke-width="2" fill="none"></path></g><g transform="translate(378.22013106227956 178.44292351145225) rotate(0 19.477624608310805 -2.6560397193151175)"><path d="M38.98 -6.23 L25.34 2.48 L24.68 -10.36 L38.12 -5.41" stroke="none" stroke-width="0" fill="#1e1e1e" fill-rule="evenodd"></path><path d="M38.7 -5.89 C33.25 -2.43, 29.5 0.7, 26.33 2.6 M38.7 -5.89 C34.81 -3.29, 30.64 -0.19, 26.33 2.6 M26.33 2.6 C25.15 -1.47, 24.6 -5.41, 24.25 -9.9 M26.33 2.6 C25.84 -0.6, 25.39 -3.56, 24.25 -9.9 M24.25 -9.9 C28.96 -8.48, 33.2 -7.3, 38.7 -5.89 M24.25 -9.9 C28.65 -8.73, 33.66 -7.02, 38.7 -5.89 M38.7 -5.89 C38.7 -5.89, 38.7 -5.89, 38.7 -5.89 M38.7 -5.89 C38.7 -5.89, 38.7 -5.89, 38.7 -5.89" stroke="#1e1e1e" stroke-width="2" fill="none"></path></g></g><mask></mask><g transform="translate(10 282.4054505174814) rotate(0 197.32992553710938 52.5)"><text x="0" y="0" font-family="Virgil, Segoe UI Emoji" font-size="28px" fill="#1e1e1e" text-anchor="start" style="white-space: pre;" direction="ltr" dominant-baseline="text-before-edge">Descripci칩n de la empresa </text><text x="0" y="35" font-family="Virgil, Segoe UI Emoji" font-size="28px" fill="#1e1e1e" text-anchor="start" style="white-space: pre;" direction="ltr" dominant-baseline="text-before-edge">y necesidades de la empresa</text><text x="0" y="70" font-family="Virgil, Segoe UI Emoji" font-size="28px" fill="#1e1e1e" text-anchor="start" style="white-space: pre;" direction="ltr" dominant-baseline="text-before-edge"></text></g><g transform="translate(454.25503066076817 10) rotate(0 136.42996215820312 17.5)"><text x="0" y="0" font-family="Virgil, Segoe UI Emoji" font-size="28px" fill="#1e1e1e" text-anchor="start" style="white-space: pre;" direction="ltr" dominant-baseline="text-before-edge">Diagrama de clases</text></g><g transform="translate(508.1830391883002 282.40545014388806) rotate(0 82.50195312500001 17.5)"><text x="0" y="0" font-family="Virgil, Segoe UI Emoji" font-size="28px" fill="#1e1e1e" text-anchor="start" style="white-space: pre;" direction="ltr" dominant-baseline="text-before-edge">Planificaci칩n</text></g><g transform="translate(875.6900982333136 10.000000428657813) rotate(0 98.34996032714844 17.5)"><text x="0" y="0" font-family="Virgil, Segoe UI Emoji" font-size="28px" fill="#1e1e1e" text-anchor="start" style="white-space: pre;" direction="ltr" dominant-baseline="text-before-edge">Documentaci칩n</text></g></svg>